<svg height="200px" width="200px" version="1.1" id="Layer_1" xmlns="http://www.w3.org/2000/svg" xmlns:xlink="http://www.w3.org/1999/xlink" viewBox="0 0 512 512" xml:space="preserve" fill="#000000"><g id="SVGRepo_bgCarrier" stroke-width="0"></g><g id="SVGRepo_tracerCarrier" stroke-linecap="round" stroke-linejoin="round"></g><g id="SVGRepo_iconCarrier"> <path style="fill:#DCD2B9;" d="M414.897,216.276c-7.692,0-15.138,0.989-22.314,2.679c-16.619-67.393-77.3-117.438-149.824-117.438 c-58.223,0-108.878,32.239-135.209,79.812C47.545,185.068,0,234.778,0,295.724c0,63.379,51.379,114.759,114.759,114.759 c21.587,0,270.218,0,300.138,0c53.629,0,97.103-43.475,97.103-97.103S468.525,216.276,414.897,216.276z"></path> <path style="fill:#CDC3A5;" d="M414.897,384L414.897,384c0-14.626-11.857-26.483-26.483-26.483H206.244 c-61.366,0-114.304-46.837-117.78-108.105c-1.405-24.759,5.643-48.659,17.704-67.979C46.818,185.843,0,235.247,0,295.724 c0,63.379,51.38,114.759,114.759,114.759c18.369,0,201.141,0,273.655,0C403.039,410.483,414.897,398.625,414.897,384z"></path> <g> <path style="fill:#F0E6CD;" d="M264.836,149.905c-0.672,0-1.362-0.061-2.06-0.19c-3.663-0.698-7.482-1.198-11.362-1.508 c-6.078-0.483-10.612-5.793-10.13-11.871c0.483-6.069,5.888-10.664,11.871-10.13c4.664,0.371,9.284,0.983,13.724,1.818 c5.983,1.138,9.922,6.905,8.793,12.896C274.673,146.216,270.035,149.905,264.836,149.905z"></path> <path style="fill:#F0E6CD;" d="M343.784,203.785c-3.672,0-7.259-1.827-9.354-5.173c-9.793-15.604-23.482-28.543-39.604-37.422 c-5.345-2.94-7.285-9.646-4.345-14.983c2.94-5.354,9.681-7.276,14.983-4.344c19.405,10.681,35.88,26.25,47.655,45.026 c3.242,5.164,1.681,11.975-3.482,15.207C347.819,203.241,345.793,203.785,343.784,203.785z"></path> <path style="fill:#F0E6CD;" d="M471.836,300.344c-4.301,0-8.388-2.526-10.173-6.733c-5.931-14.026-17.698-24.561-32.267-28.888 c-5.836-1.741-9.164-7.88-7.431-13.724c1.734-5.844,7.887-9.164,13.725-7.431c20.905,6.216,37.784,21.319,46.302,41.44 c2.37,5.612-0.25,12.086-5.863,14.465C474.723,300.068,473.267,300.344,471.836,300.344z"></path> </g> <g> <path style="fill:#FFFFFF;" d="M180.23,362.666c-35.293,0-64-28.707-64-64v-17.655c0-35.293,28.707-64,64-64 c15.767,0,30.922,5.784,42.664,16.294c4.534,4.068,4.922,11.043,0.862,15.586c-4.07,4.534-11.034,4.905-15.586,0.862 c-7.681-6.879-17.603-10.673-27.939-10.673c-23.121,0-41.931,18.81-41.931,41.931v17.655c0,23.121,18.81,41.931,41.931,41.931 c10.327,0,20.258-3.794,27.948-10.681c4.543-4.052,11.509-3.672,15.586,0.862c4.061,4.543,3.672,11.518-0.862,15.586 C211.153,356.873,195.997,362.666,180.23,362.666z"></path> <path style="fill:#FFFFFF;" d="M304.552,362.666c-35.293,0-64-28.707-64-64v-17.655c0-35.293,28.707-64,64-64s64,28.707,64,64 v17.655C368.552,333.96,339.844,362.666,304.552,362.666z M304.552,239.08c-23.121,0-41.931,18.81-41.931,41.931v17.655 c0,23.121,18.81,41.931,41.931,41.931s41.931-18.81,41.931-41.931v-17.655C346.483,257.89,327.672,239.08,304.552,239.08z"></path> </g> </g></svg>